<?xml version="1.0" encoding="iso-8859-1"?>
<!-- Generator: Adobe Illustrator 18.0.0, SVG Export Plug-In . SVG Version: 6.00 Build 0)  -->
<!DOCTYPE svg PUBLIC "-//W3C//DTD SVG 1.1//EN" "http://www.w3.org/Graphics/SVG/1.1/DTD/svg11.dtd">
<svg version="1.1" id="Capa_1" xmlns="http://www.w3.org/2000/svg" xmlns:xlink="http://www.w3.org/1999/xlink" x="0px" y="0px"
	 viewBox="0 0 427.878 427.878" style="enable-background:new 0 0 427.878 427.878;" xml:space="preserve">
<path d="M421.878,267.44h-10.436v-48.294c0-3.313-2.687-6-6-6h-55.936c-3.314,0-6,2.687-6,6v48.3h-22.515v-44.399
	c0-40.717-31.064-74.315-70.737-78.339c16.109-11.417,26.653-30.191,26.653-51.393c0-34.722-28.248-62.97-62.969-62.97
	s-62.969,28.248-62.969,62.97c0,21.202,10.544,39.977,26.653,51.393c-39.673,4.025-70.737,37.622-70.737,78.339v44.399H84.372v-48.3
	c0-3.313-2.687-6-6-6H22.435c-3.313,0-6,2.687-6,6v48.294H6c-3.313,0-6,2.687-6,6s2.687,6,6,6h10.435v48.294c0,3.313,2.687,6,6,6
	h55.937c3.313,0,6-2.687,6-6v-48.288h24.116c3.768,10.438,13.771,17.92,25.491,17.92c5.581,0,10.773-1.698,15.088-4.602v77.182
	c0,15.212,12.376,27.588,27.589,27.588s27.589-12.376,27.589-27.588v-66.61c0-5.346,4.349-9.694,9.694-9.694
	c5.346,0,9.694,4.349,9.694,9.694v66.61c0,15.212,12.376,27.588,27.588,27.588s27.589-12.376,27.589-27.588v-77.182
	c4.315,2.905,9.507,4.602,15.089,4.602c11.72,0,21.723-7.482,25.491-17.92h24.117v48.288c0,3.313,2.686,6,6,6h55.936
	c3.313,0,6-2.687,6-6V279.44h10.436c3.313,0,6-2.687,6-6S425.192,267.44,421.878,267.44z M28.435,225.146h15.968v96.588H28.435
	V225.146z M56.403,321.734v-96.588h15.968v96.588H56.403z M162.97,93.314c0-28.104,22.865-50.97,50.969-50.97
	s50.969,22.865,50.969,50.97s-22.865,50.969-50.969,50.969S162.97,121.419,162.97,93.314z M251.222,385.534
	c-8.595,0-15.588-6.993-15.588-15.588v-66.61c0-11.962-9.732-21.694-21.694-21.694c-11.962,0-21.694,9.732-21.694,21.694v66.61
	c0,8.595-6.993,15.588-15.589,15.588s-15.589-6.993-15.589-15.588v-90.5h105.743v90.5
	C266.811,378.541,259.817,385.534,251.222,385.534z M308.992,270.273c0,8.322-6.771,15.093-15.092,15.093
	c-8.299,0-15.052-6.734-15.089-15.025l-0.003-59.043c0-3.313-2.687-6-6-6s-6,2.687-6,6v56.148H161.071v-56.148c0-3.313-2.687-6-6-6
	s-6,2.687-6,6l-0.004,59.053c-0.042,8.286-6.793,15.016-15.088,15.016c-8.322,0-15.093-6.771-15.093-15.093v-47.227
	c0-36.803,29.941-66.744,66.744-66.744h56.619c36.802,0,66.743,29.941,66.743,66.744V270.273z M355.507,225.146h15.968v96.588
	h-15.968V225.146z M399.443,321.734h-15.968v-96.588h15.968V321.734z"/>
<g>
</g>
<g>
</g>
<g>
</g>
<g>
</g>
<g>
</g>
<g>
</g>
<g>
</g>
<g>
</g>
<g>
</g>
<g>
</g>
<g>
</g>
<g>
</g>
<g>
</g>
<g>
</g>
<g>
</g>
</svg>
